<svg xmlns="http://www.w3.org/2000/svg" viewBox="0 0 45.267 30"><defs><style>.a{fill:#797a7a;stroke:#838081;stroke-miterlimit:10;}.b{fill:#5d5d5d;}.c{fill:#b63433;}.d{fill:#ad4b4b;}.e{fill:#575656;font-size:25px;font-family:Lato-Regular, Lato;letter-spacing:0.025em;}</style></defs><g transform="translate(-522 -244.028)"><g transform="translate(558.088 246.479)"><path class="a" d="M9.179,187.368c0,.882-1.945,1.121-4.339,1.121S.5,188.251.5,187.368,2.445,185.3,4.839,185.3,9.179,186.486,9.179,187.368Z" transform="translate(-0.5 -171.146)"/><path class="b" d="M9.179,297.191c.362.976-1.794,1.634-4.339,1.591C2.445,298.746.5,298.066.5,297.191S2.445,295.6,4.839,295.6,8.875,296.367,9.179,297.191Z" transform="translate(-0.5 -273.469)"/><path class="b" d="M.572,221.588.5,213.9H9.179v7.977" transform="translate(-0.5 -197.677)"/><ellipse class="b" cx="3.537" cy="1.244" rx="3.537" ry="1.244" transform="translate(0.803 8.607)"/><path class="b" d="M11.6,92.2h0v0Z" transform="translate(-10.797 -82.346)"/><path class="b" d="M18.673,125.8v5.894H11.6V125.8" transform="translate(-10.797 -115.949)"/><ellipse class="c" cx="2.444" cy="1.555" rx="2.444" ry="1.555" transform="matrix(0.866, -0.5, 0.5, 0.866, 1.444, 2.444)"/><path class="c" d="M33.639,88.431c-.427-.745-1.721-.8-2.893-.123a2.583,2.583,0,0,0-1.475,2.1,1.043,1.043,0,0,0,.137.463c.427.745,1.721.8,2.893.123S34.073,89.176,33.639,88.431Z" transform="translate(-27.188 -80.727)"/><path class="c" d="M29.3,18.332,33.806,16.9v6.183l-4.5,1.526" transform="translate(-27.217 -14.924)"/><ellipse class="d" cx="2.249" cy="1.273" rx="2.249" ry="1.273" transform="translate(1.769 1.957) rotate(-23.453)"/><path class="c" d="M85.663,104.1v.607l-.463.521" transform="translate(-79.074 -95.818)"/></g><text class="e" transform="translate(522 269.028)"><tspan x="0" y="0">nk</tspan></text></g></svg>